<svg width="160" height="43" viewBox="0 0 160 43" fill="none" xmlns="http://www.w3.org/2000/svg">
<g clip-path="url(#clip0)">
<mask id="mask0" mask-type="alpha" maskUnits="userSpaceOnUse" x="47" y="11" width="10" height="23">
<path d="M47.4431 33.4979H56.0714V11.8402H47.444V33.4979H47.4431Z" fill="#222222"/>
</mask>
<g mask="url(#mask0)">
<path fill-rule="evenodd" clip-rule="evenodd" d="M49.895 31.2699H51.9746C53.0916 31.2699 53.6201 30.7441 53.6201 29.6306V25.3601C53.6201 24.1239 53.0296 23.5353 51.7885 23.5353H49.895V31.2699ZM51.9125 14.0673H49.895V21.3387H51.7265C52.9676 21.3387 53.5581 20.7502 53.5581 19.513V15.7075C53.5581 14.5931 53.0296 14.0681 51.9134 14.0681L51.9125 14.0673ZM56.0717 25.8242V29.4756C56.0717 32.1676 54.7371 33.4979 52.0366 33.4979H47.4442V11.8402H51.9746C54.6751 11.8402 56.0097 13.1705 56.0097 15.8625V19.0481C56.0097 20.9661 55.3572 21.956 54.1161 22.42C55.3887 22.9154 56.0717 23.9053 56.0717 25.8242V25.8242Z" fill="#222222"/>
</g>
<mask id="mask1" mask-type="alpha" maskUnits="userSpaceOnUse" x="126" y="11" width="10" height="23">
<path d="M126.736 33.4979H135.739V11.8062H126.736V33.4979Z" fill="#222222"/>
</mask>
<g mask="url(#mask1)">
<path fill-rule="evenodd" clip-rule="evenodd" d="M133.254 29.5992C133.254 30.7127 132.726 31.2386 131.609 31.2386H130.863C129.746 31.2386 129.219 30.7127 129.219 29.5992L129.23 15.703C129.23 14.7069 129.644 14.1909 130.461 14.0923H133.256L133.254 29.5992V29.5992ZM135.739 11.8169L130.642 11.8062C128.289 11.816 126.746 13.1454 126.746 15.8267L126.736 29.4756C126.736 32.1676 128.07 33.4979 130.771 33.4979H131.702C134.402 33.4979 135.737 32.1676 135.737 29.4756L135.739 11.8169Z" fill="#222222"/>
</g>
<mask id="mask2" mask-type="alpha" maskUnits="userSpaceOnUse" x="137" y="11" width="11" height="23">
<path d="M137.87 33.4979H147.113V11.8062H137.87V33.4979Z" fill="#222222"/>
</mask>
<g mask="url(#mask2)">
<path fill-rule="evenodd" clip-rule="evenodd" d="M144.561 29.5992C144.561 30.7127 144.02 31.2386 142.873 31.2386H142.107C140.96 31.2386 140.418 30.7127 140.418 29.5992L140.431 15.703C140.431 14.7069 140.855 14.1909 141.694 14.0923H144.563L144.561 29.5992V29.5992ZM147.114 11.8169L141.88 11.8062C139.465 11.816 137.88 13.1454 137.88 15.8267L137.871 29.4756C137.87 32.1676 139.239 33.4979 142.011 33.4979H142.967C145.74 33.4979 147.11 32.1676 147.11 29.4756L147.112 11.8169H147.114Z" fill="#222222"/>
</g>
<path fill-rule="evenodd" clip-rule="evenodd" d="M71.7976 11.8401V31.2081H75.8948V33.4978H69.3146V11.8401H71.7976ZM80.2391 11.8401V31.2081H84.3362V33.4978H77.756V11.8401H80.2391ZM92.8684 11.8401V14.1299H88.5232V21.3073H92.7129V23.5666H88.5232V31.2081H92.9304V33.4978H86.0392V11.8401H92.8684ZM97.6755 33.4978V14.1299H94.4159V11.8401H103.417V14.1299H100.159V33.4978H97.6755ZM109.481 14.0985H107.773V23.1017H109.481C110.598 23.1017 111.125 22.5758 111.125 21.4623V15.7379C111.125 14.6244 110.598 14.0985 109.481 14.0985V14.0985ZM107.773 33.4978H105.29V11.8401H109.573C112.274 11.8401 113.608 13.1705 113.608 15.8624V21.3387C113.608 24.0298 112.274 25.361 109.573 25.361H107.773V33.4978ZM156.191 11.8401V14.1299H152.001V21.3682H156.036V23.6284H152.001V33.4978H149.517V11.8401H156.191ZM67.2188 11.6458H64.7357V31.2188H61.9453C61.0861 31.14 60.6512 30.6231 60.6512 29.6V11.6458H58.2984V29.4764C58.2984 32.0931 59.6455 33.4181 61.8958 33.4906V33.4942H67.2179V11.6458H67.2188Z" fill="#222222"/>
<mask id="mask3" mask-type="alpha" maskUnits="userSpaceOnUse" x="115" y="11" width="10" height="23">
<path d="M115.759 33.4979H124.964V11.8402H115.759V33.4979Z" fill="#222222"/>
</mask>
<g mask="url(#mask3)">
<path fill-rule="evenodd" clip-rule="evenodd" d="M118.242 14.0986H119.95C121.067 14.0986 121.594 14.6245 121.594 15.738V21.4624C121.594 22.5759 121.067 23.1017 119.95 23.1017H118.242V14.0986ZM124.964 33.4647L122.204 24.9543C123.455 24.3756 124.077 23.1743 124.077 21.3387V15.8625C124.077 13.1705 122.743 11.8402 120.042 11.8402H115.759V33.4979H118.242V25.361H119.726L122.354 33.4647H124.964V33.4647Z" fill="#222222"/>
</g>
<path fill-rule="evenodd" clip-rule="evenodd" d="M157.098 12.2218H156.817V11.8429H157.778V12.2218H157.497V14.1282H157.098V12.2218ZM157.945 11.8429H158.341L158.623 12.6787L158.905 11.8429H159.301V14.1273H158.918V12.7477L158.627 13.6122H158.62L158.328 12.7468V14.1273H157.945V11.8429ZM32.4646 15.419C31.7321 16.1653 31.387 17.182 31.467 18.361C31.5263 19.2263 31.8229 20.1213 32.2911 20.9338C31.0015 19.805 30.19 18.5401 29.8736 17.157C29.2868 14.5734 30.6492 12.4332 30.6708 12.401C30.6763 12.3918 30.6811 12.3822 30.6851 12.3723C31.5533 11.687 32.461 11.2848 33.3552 11.4183C34.9863 11.7139 34.9863 12.8946 34.9863 13.2825C34.9863 13.3837 35.033 13.4823 35.113 13.5459C35.495 13.8594 35.7205 14.2473 35.8499 14.568C35.0474 14.3243 33.6733 14.1873 32.4646 15.419V15.419ZM28.0646 30.3562C27.7231 30.452 27.4022 30.5443 27.0859 30.6572C26.0389 31.0289 25.1807 31.3497 24.4725 31.6686C24.8517 31.1965 25.2301 30.6921 25.5941 30.1582C28.2146 26.3303 28.8689 22.7962 27.5146 19.874C29.1223 20.8818 31.5479 22.2435 33.7488 22.8419C32.5643 29.0796 30.1756 29.7578 28.0646 30.3562V30.3562ZM20.618 40.841L20.6108 40.927L18.5249 41.9474L20.7591 35.5439C20.7627 35.5323 20.7645 35.5171 20.7681 35.5036C20.822 35.4588 21.0988 35.2277 21.5185 34.8389C21.485 34.9906 21.4562 35.1433 21.4322 35.2967C20.8256 38.4339 20.6755 40.1826 20.618 40.8419V40.841ZM12.7014 34.8712C12.7194 34.8694 12.7391 34.8676 12.7571 34.8622L17.8231 33.3393L18.5887 34.0058L13.1984 39.9156L12.7014 34.8721V34.8712ZM14.275 31.5566C14.3775 31.5682 14.4817 31.5835 14.5914 31.5969C15.7632 31.7483 17.3189 31.9481 18.8476 31.2287L17.6613 32.6737L13.06 34.0578L14.275 31.5557V31.5566ZM6.43571 17.6067L19.6106 18.1818C19.6231 18.7713 19.6627 19.3679 19.7364 19.9672C19.7499 20.0765 19.7642 20.1822 19.7804 20.2897L11.0478 22.0724C11.0261 22.0759 11.005 22.0823 10.9849 22.0912L6.43571 17.6067V17.6067ZM4.00026 10.4275L19.7103 15.9637C19.6537 16.4636 19.6195 16.976 19.6115 17.4983L5.86145 16.8981C5.84795 16.8969 5.83435 16.8975 5.82101 16.8999L4.00116 10.4275H4.00026ZM4.90165 3.86817C4.91423 3.87534 4.92861 3.88071 4.94029 3.88609L20.1857 13.6041C20.023 14.1513 19.896 14.7085 19.8056 15.2721L3.77558 9.62569L1.57379 1.79074L4.90165 3.86907V3.86817ZM20.7106 12.2084C20.6027 12.4431 20.5021 12.685 20.4095 12.9358L5.4157 3.37905L5.30696 1.00778L20.7106 12.2093V12.2084ZM20.5758 23.6016C20.9532 24.6784 21.4268 25.6531 21.9759 26.488L17.1239 25.5402L20.5749 23.6016H20.5758ZM20.3592 22.9387L16.2881 25.2257C16.2671 25.2387 16.2476 25.2537 16.2297 25.2705L11.8189 22.6117L19.8874 20.9643C20.0087 21.6487 20.1677 22.308 20.3592 22.9396V22.9387ZM17.717 42.1776L13.6217 40.4666L19.1073 34.4537L20.1093 35.3245L17.717 42.1776V42.1776ZM20.5434 34.7941L18.3623 32.9012L22.7614 27.5415L22.7668 27.5361C23.5262 28.4086 24.3835 29.0393 25.2921 29.3528C23.5298 32.0663 21.2525 34.1706 20.5434 34.7941ZM24.8886 18.0904C25.0243 18.1818 25.1546 18.2669 25.2768 18.3502C25.7585 18.6942 26.3211 19.1323 26.5323 19.479C28.3755 22.5275 27.3645 25.9218 25.6659 28.7544C24.7259 28.4749 23.8326 27.786 23.0525 26.7979C23.0485 26.7941 23.0449 26.7899 23.0418 26.7854C21.7396 25.1308 20.7555 22.6529 20.4158 19.8857C20.1318 17.5511 20.3322 15.2632 20.964 13.4178C21.5454 15.8705 23.5163 17.1803 24.8886 18.0904V18.0904ZM29.3811 13.622C29.0846 14.5671 28.8779 15.8598 29.2023 17.2967C29.5456 18.8116 30.4155 20.1867 31.7887 21.4023C29.1466 20.2342 26.6231 18.4792 26.1818 18.1657L26.2537 18.0492C27.0212 16.8085 28.1257 15.0303 29.3811 13.622V13.622ZM35.6684 13.1212C35.5938 11.3887 34.2736 10.8888 33.4684 10.7446C30.2691 10.2671 27.2764 15.0957 25.6695 17.6918L25.6264 17.7617C25.4736 17.6515 25.3244 17.5511 25.1977 17.4642L25.1618 17.4392L25.1564 17.4481C23.6798 16.4654 21.5526 14.9819 21.4843 12.091C21.4826 12.0385 21.469 11.9871 21.4446 11.9406C21.4201 11.8941 21.3855 11.8536 21.3432 11.8223L5.13531 0.035798C5.08288 -0.00147797 5.02112 -0.0235533 4.95687 -0.0279808C4.89263 -0.0324082 4.82841 -0.0190148 4.77133 0.0107146C4.71415 0.0410543 4.66681 0.0869799 4.63482 0.143132C4.60284 0.199283 4.58753 0.263345 4.5907 0.32784L4.71022 2.94367L1.18735 0.741715C1.12856 0.705717 1.06027 0.688163 0.991348 0.691329C0.922426 0.694495 0.856049 0.718236 0.800829 0.759471C0.745609 0.800705 0.704096 0.857531 0.681675 0.922574C0.659254 0.987618 0.656961 1.05788 0.675092 1.12424L5.22428 17.3093C5.23997 17.3665 5.27032 17.4187 5.31235 17.4607L10.576 22.6493C10.594 22.6681 10.6155 22.6852 10.6389 22.6986L16.1659 26.0302C16.2009 26.0499 16.2378 26.066 16.2773 26.0732L22.1413 27.2163C21.4879 27.9957 20.0806 29.6144 19.0426 30.3463C17.5597 31.2914 15.8954 31.0764 14.6785 30.9179C14.4884 30.8918 14.2978 30.8685 14.107 30.848C14.0372 30.8413 13.967 30.8559 13.9058 30.89C13.8446 30.9241 13.7953 30.976 13.7646 31.0388L12.0355 34.5997C12.0088 34.6564 11.9976 34.7192 12.0031 34.7816L12.5747 40.5749C12.5873 40.7004 12.6673 40.8079 12.7841 40.858L17.7745 42.9435C17.8197 42.9624 17.8685 42.9713 17.9175 42.9698C17.9665 42.9683 18.0146 42.9562 18.0585 42.9346L21.0449 41.4744C21.1069 41.4528 21.1611 41.4131 21.2003 41.3606C21.2686 41.271 21.274 41.2217 21.3001 40.8992C21.3576 40.2515 21.5059 38.528 22.108 35.4114C22.4432 33.2434 23.3958 32.6943 27.3177 31.2995C27.6107 31.1938 27.9217 31.106 28.2524 31.0128C30.4775 30.3822 33.2491 29.5983 34.4839 22.6332C34.4948 22.572 34.4888 22.5091 34.4666 22.4511C34.4445 22.393 34.407 22.342 34.3581 22.3035C33.1179 21.3441 32.2516 19.7791 32.1518 18.3135C32.1051 17.6318 32.2066 16.6571 32.9534 15.8947C34.4075 14.4139 36.1133 15.3931 36.1887 15.4379C36.2434 15.4697 36.3059 15.4859 36.3692 15.4847C36.4325 15.4835 36.4943 15.465 36.5477 15.4311C36.6012 15.3972 36.6443 15.3494 36.6723 15.2927C36.7002 15.2361 36.7121 15.1729 36.7064 15.11C36.701 15.0607 36.5761 13.9472 35.6684 13.1212V13.1212Z" fill="#222222"/>
</g>
<defs>
<clipPath id="clip0">
<rect width="160" height="43" fill="white"/>
</clipPath>
</defs>
</svg>
