<svg width="128" height="44" viewBox="0 0 128 44" fill="none" xmlns="http://www.w3.org/2000/svg">
<path d="M5.75385 2.36154C7.90548 2.36154 8.54039 4.20776 8.50512 5.62827H10.9654C10.9654 3.16366 9.48393 0 5.75385 0C2.64545 0 0 2.13749 0 8.5141C0 14.8459 2.64545 16.9789 5.75385 16.9789C9.48393 16.9789 10.9654 13.8153 10.9654 11.3506H8.50512C8.54039 12.7712 7.90548 14.6174 5.75385 14.6174C2.90558 14.6174 2.51318 11.2028 2.51318 8.5141C2.51318 5.82544 2.90558 2.36154 5.75385 2.36154Z" fill="#222222"/>
<path d="M26.7499 8.22734C27.3239 7.34702 27.615 6.30743 27.5833 5.25188C27.5833 3.15024 26.3531 0.322662 22.9846 0.322662H17.7422V16.6429H20.198V10.1004H22.7685L25.242 16.6339H27.7773L24.9731 9.66577C25.6831 9.3596 26.2975 8.86225 26.7499 8.22734V8.22734ZM22.6848 8.15564H20.198V2.43775H22.6583C24.9775 2.43775 25.339 4.33773 25.339 5.26084C25.339 6.68583 24.6248 8.15564 22.6848 8.15564Z" fill="#222222"/>
<path d="M38.1561 0.33609L33.606 16.6428H36.0839L37.0009 13.3134H42.0582L42.94 16.6428H45.4576L40.8721 0.33609H38.1561ZM37.4507 11.3372L39.5185 2.88584L41.5864 11.3372H37.4507Z" fill="#222222"/>
<path d="M60.0606 8.06598C61.2378 7.32211 61.6699 5.82542 61.6699 4.62C61.6699 2.30775 60.3252 0.340546 57.0713 0.340546H52.0493V16.6428H57.5342C59.5139 16.6428 62.0932 15.5405 62.0932 11.7539C62.1233 11.0083 61.9493 10.2687 61.5904 9.61762C61.2316 8.96651 60.702 8.42937 60.0606 8.06598ZM54.5052 2.49596H56.7803C58.7247 2.49596 59.4257 3.50869 59.4257 4.89335C59.4257 6.27801 58.7291 7.2773 56.9699 7.29523H54.5052V2.49596ZM56.8773 14.456H54.5052V9.20418H56.7626C58.5263 9.20418 59.7211 9.7912 59.7211 11.7405C59.7211 12.7577 59.2141 14.456 56.8773 14.456Z" fill="#222222"/>
<path d="M67.9175 2.55872H71.8548V16.6428H74.3062V2.55872H78.2436V0.33609H67.9175V2.55872Z" fill="#222222"/>
<path d="M94.0327 8.22734C94.6066 7.34702 94.8978 6.30743 94.866 5.25188C94.866 3.15024 93.6358 0.322662 90.2673 0.322662H85.0249V16.6429H87.4764V10.1004H90.0513L92.5203 16.6339H95.0512L92.2514 9.65681C92.9617 9.35322 93.5774 8.85911 94.0327 8.22734V8.22734ZM89.9675 8.15564H87.4764V2.43775H89.941C92.2602 2.43775 92.6218 4.33773 92.6218 5.26084C92.6218 6.68583 91.9075 8.15564 89.9675 8.15564Z" fill="#222222"/>
<path d="M102.291 16.6428H111.483V14.4874H104.742V9.34312H110.505V7.18771H104.742V2.50047H111.483V0.33609H102.291V16.6428Z" fill="#222222"/>
<path d="M118.807 16.6428H128V14.4874H121.259V9.34312H127.021V7.18771H121.259V2.50047H128V0.33609H118.807V16.6428Z" fill="#222222"/>
<path d="M14.3117 36.4852H11.3752L9.39995 38.5375L3.60642 32.6359C3.37177 32.3972 3.19864 32.1034 3.10237 31.7805C3.0061 31.4576 2.98965 31.1155 3.05447 30.7846C3.1193 30.4536 3.2634 30.1441 3.47403 29.8833C3.68465 29.6224 3.9553 29.4184 4.26201 29.2893C4.56872 29.1601 4.90203 29.1098 5.23243 29.1428C5.56283 29.1758 5.88014 29.2911 6.15625 29.4784C6.43235 29.6658 6.65875 29.9195 6.8154 30.2169C6.97205 30.5144 7.05411 30.8466 7.05432 31.184H9.14422C9.14426 30.4972 8.97762 29.821 8.65908 29.2152C8.34054 28.6095 7.87993 28.0929 7.31804 27.7113C6.75616 27.3297 6.11034 27.0949 5.43781 27.0275C4.76528 26.9602 4.08679 27.0625 3.46244 27.3253C2.83809 27.5881 2.28716 28.0034 1.85845 28.5343C1.42973 29.0653 1.13647 29.6955 1.00464 30.3691C0.872813 31.0427 0.906483 31.739 1.10267 32.3963C1.29886 33.0535 1.6515 33.6514 2.12938 34.1371L2.70696 34.7241C2.35865 35.0736 1.96183 35.4724 1.65319 35.7906C0.853794 36.7131 0.431245 37.911 0.471925 39.1396C0.512605 40.3682 1.01344 41.5345 1.87205 42.4003C2.73067 43.2661 3.88222 43.7659 5.09131 43.7975C6.3004 43.8291 7.47573 43.3902 8.37704 42.5705L9.39995 41.5219L11.384 43.5384H14.3425L10.8682 40.0073L14.3117 36.4852ZM6.90882 41.0828C6.41301 41.5903 5.73915 41.8768 5.03549 41.8793C4.33183 41.8818 3.65601 41.6001 3.15669 41.0962C2.65737 40.5923 2.37547 39.9075 2.37299 39.1923C2.37051 38.4771 2.64765 37.7903 3.14346 37.2828C3.44769 36.9691 3.8401 36.5703 4.18401 36.2297L7.93613 40.0342L6.90882 41.0828Z" fill="#222222"/>
<path d="M36.9082 43.6236H46.1055V41.4682H39.3641V36.3239H45.1223V34.1685H39.3641V29.4812H46.1055V27.3169H36.9082V43.6236Z" fill="#222222"/>
<path d="M57.8341 39.8147L57.7812 40.0566H57.7503L57.6842 39.8147L54.3774 27.3169L53.8483 27.3124H51.873L56.4805 43.6057L59.0643 43.6236L63.6365 27.3169H61.1233L57.8341 39.8147Z" fill="#222222"/>
<path d="M69.897 43.6236H79.0899V41.4682H72.3484V36.3239H78.1111V34.1685H72.3484V29.4812H79.0899V27.3169H69.897V43.6236Z" fill="#222222"/>
<path d="M89.0325 27.3169H86.5811V43.6236H95.1258V41.4682H89.0325V27.3169Z" fill="#222222"/>
<path d="M104.513 34.7062L104.464 34.9392H104.425L104.359 34.7062L101.113 27.3169H98.5342L103.181 37.6727L103.208 37.8071V43.5967H105.668V37.8071L105.69 37.6727L110.214 27.3169H107.617L104.513 34.7062Z" fill="#222222"/>
<path d="M125.301 27.3079V38.9991V39.138H125.257L125.222 38.9991L118.622 27.3079H116.214V43.6102H118.622V31.7801H118.648L118.705 31.919L125.315 43.6102H127.713V27.3079H125.301Z" fill="#222222"/>
</svg>
