<svg width="170" height="40" viewBox="0 0 170 40" fill="none" xmlns="http://www.w3.org/2000/svg">
<path d="M43.7737 25.2965H47.8618C49.4569 25.2965 50.0634 25.8276 50.0634 27.1283C50.0634 28.3807 49.4566 28.9112 47.8618 28.9112H43.7737V25.2965ZM37.4405 38.4524H43.774V33.1028H50.558C55.0495 33.1028 56.6667 30.5499 56.6667 27.2494C56.6667 23.418 55.0038 21.25 50.5123 21.25H37.4405V38.4524Z" fill="#222222"/>
<path d="M58.6905 21.25H74.881V25.4413H64.7061V27.7544H74.1568V31.9474H64.7061V34.2602H74.881V38.4524H58.6905V21.25Z" fill="#222222"/>
<path d="M83.9168 25.2965H87.7894C89.3002 25.2965 89.8751 25.8276 89.8751 27.1283C89.8751 28.3807 89.3002 28.9112 87.7894 28.9112H83.9168V25.2965ZM77.9167 38.4524H83.9168V33.1028H90.3424C94.5987 33.1028 96.1309 30.5499 96.1309 27.2494C96.1309 23.418 94.5556 21.25 90.2997 21.25H77.9167V38.4524Z" fill="#222222"/>
<path d="M101.682 31.2099C98.6264 30.6805 97.3652 28.6674 97.3652 26.1516C97.3652 21.4952 101.373 20.238 106.509 20.238C113.549 20.238 116.45 22.326 116.672 26.1265H109.409C109.409 25.3965 109.032 24.9426 108.458 24.6913C107.904 24.4152 107.196 24.3147 106.509 24.3147C104.649 24.3147 104.007 24.8425 104.007 25.5981C104.007 26.1005 104.206 26.4289 104.826 26.5291L112.288 27.7868C115.432 28.3152 117.381 29.9762 117.381 33.0205C117.381 37.4007 114.237 39.4642 107.217 39.4642C102.413 39.4642 97.1646 38.7095 97.1429 33.4246H104.671C104.692 34.0278 104.892 34.4304 105.336 34.7074C105.8 34.9594 106.486 35.0855 107.46 35.0855C109.408 35.0855 109.941 34.4811 109.941 33.6252C109.941 33.0968 109.652 32.5687 108.813 32.4185L101.682 31.2099Z" fill="#222222"/>
<path d="M119.405 21.25H125.476V38.4524H119.405V21.25Z" fill="#222222"/>
<path d="M147.738 31.8392C147.357 34.2047 146.68 36.1173 145.199 37.4255C143.741 38.7343 141.456 39.4642 137.82 39.4642C134.204 39.4642 127.5 39.1615 127.5 29.8518C127.5 20.5401 134.204 20.238 137.82 20.238C141.414 20.238 146.955 20.7912 147.738 27.9138H141.013C140.844 26.6291 140.124 24.7672 137.82 24.7672C135.387 24.7672 133.843 26.2015 133.843 29.8514C133.843 33.5004 135.345 34.9338 137.523 34.9338C139.406 34.9338 140.527 34.0028 141.013 31.8389H147.738V31.8392Z" fill="#222222"/>
<path d="M155.983 29.8517C155.983 26.2015 157.497 24.7676 159.882 24.7676C162.266 24.7676 163.78 26.2019 163.78 29.8517C163.78 33.5007 162.266 34.9341 159.882 34.9341C157.497 34.9338 155.983 33.5004 155.983 29.8517ZM149.762 29.8517C149.762 39.1612 156.335 39.4642 159.881 39.4642C163.427 39.4642 170 39.1615 170 29.8517C170 20.5401 163.427 20.238 159.881 20.238C156.335 20.238 149.762 20.5398 149.762 29.8517Z" fill="#222222"/>
<path d="M27.8559 21.6228C28.2407 13.023 21.3007 3.33841 11.8395 2.14132L11.8557 2.0238C21.183 2.0238 28.3333 11.2513 28.3333 18.531C28.3244 20.0464 28.2124 20.9853 28.0127 21.6669L27.8559 21.6228ZM27.2908 22.716C26.6702 23.5263 25.8897 24.3421 24.9753 25.1166C23.2932 14.7778 16.1838 5.7372 11.1575 3.09843L11.0498 3.17863C16.1047 7.61194 22.1337 16.2222 24.4783 25.5222C23.3567 26.4056 22.0601 27.2187 20.6276 27.8788C15.8576 22.0658 11.4106 10.855 9.97754 3.74093L9.83177 3.78781C9.8641 10.6933 14.452 22.4162 20.0469 28.1363C18.8052 28.6598 17.4699 29.0678 16.0678 29.3112C10.7046 27.0407 6.88711 19.7688 6.88711 12.3195C6.88711 7.45648 8.27458 4.4482 8.54301 3.83254L8.42872 3.78411C8.104 4.30909 6.07143 7.31583 6.07143 12.5659C6.07143 20.9862 9.95733 27.4223 15.1164 29.4491C13.3514 29.6542 11.494 29.5922 9.58845 29.1718L9.55006 29.3001C10.1019 29.5172 11.9743 30.3571 14.8307 30.3571C21.2912 30.3571 25.6585 26.0676 27.4166 22.807L27.2908 22.716Z" fill="#222222"/>
<path d="M13.7218 0C8.80314 0 3.03571 3.54862 3.03571 6.7924C3.03571 8.04714 4.18392 9.10714 6.56035 9.10714C12.077 9.10714 17.2024 5.3183 17.2024 2.37212C17.2024 0.821811 15.713 0 13.7218 0ZM15.6854 2.28055C15.6854 4.76395 10.9149 7.79966 6.92705 7.79966C5.16516 7.79966 4.2132 7.10652 4.2132 5.96276C4.2132 3.44372 9.03794 0.459588 12.7785 0.459588C15.2173 0.459588 15.6854 1.70013 15.6854 2.28055Z" fill="#222222"/>
<path d="M1.71897 8.22949C1.57768 8.45111 1.0119 9.45578 1.0119 10.4852C1.0119 12.3943 3.13904 14.1667 7.05147 14.1667C14.5781 14.1667 23.2738 9.14256 23.2738 4.47889C23.2738 2.38546 21.0886 1.24728 19.5714 1.01196L19.543 1.09363C20.0148 1.22901 21.7435 1.95781 21.7435 3.82263C21.7435 7.53857 14.0659 12.6017 6.41816 12.6017C3.49035 12.6017 1.64581 11.2911 1.64581 9.38191C1.64581 8.77803 1.78444 8.38019 1.82117 8.26495L1.71897 8.22949Z" fill="#222222"/>
<path d="M26.8472 4.04761C27.0594 4.20272 28.3333 5.22543 28.3333 7.15945C28.3333 13.7537 17.6064 20.2381 8.12296 20.2381C2.46756 20.2381 -0.110529 17.5485 0.00362662 15.1603H0.104997C0.32661 16.4005 2.16284 18.6199 7.11261 18.6199C16.6079 18.6199 27.2097 11.9103 27.2097 6.03176C27.2097 5.02341 26.9254 4.39506 26.7647 4.11563L26.8472 4.04761Z" fill="#222222"/>
<path d="M30.0806 11.131C30.1252 11.2696 30.3571 11.8928 30.3571 12.8688C30.3571 20.1102 19.4616 26.3096 9.98562 26.3096C5.10844 26.3096 2.56154 24.0652 2.02381 23.1537L2.11058 23.0929C3.46011 24.2111 6.11822 25.0606 9.22027 25.0606C17.5893 25.0606 30.0773 19.0285 29.9658 11.1573L30.0806 11.131Z" fill="#222222"/>
</svg>
