<svg width="157" height="17" viewBox="0 0 157 17" fill="none" xmlns="http://www.w3.org/2000/svg">
<path d="M0 13.6L1.37719 12.784C2.34123 14.552 3.44298 15.436 4.68246 15.436C5.23333 15.436 5.71535 15.3 6.19737 15.028C6.67939 14.756 7.02369 14.416 7.29912 14.008C7.57456 13.6 7.64342 13.124 7.64342 12.648C7.64342 12.104 7.43684 11.56 7.09254 11.016C6.61053 10.268 5.64649 9.452 4.33816 8.432C3.02982 7.48 2.20351 6.732 1.85921 6.256C1.30833 5.508 1.03289 4.692 1.03289 3.808C1.03289 3.06 1.17061 2.448 1.51491 1.904C1.85921 1.36 2.34123 0.884 2.96097 0.544C3.51184 0.136 4.20044 0 4.88904 0C5.64649 0 6.33509 0.204 7.02368 0.544C7.71228 0.952 8.40088 1.632 9.08947 2.652L7.78114 3.672C7.1614 2.856 6.67939 2.312 6.26623 2.04C5.85307 1.768 5.37105 1.632 4.88904 1.632C4.2693 1.632 3.71842 1.836 3.30526 2.244C2.89211 2.652 2.68553 3.128 2.68553 3.74C2.68553 4.08 2.75439 4.42 2.89211 4.76C3.02982 5.1 3.30526 5.44 3.71842 5.848C3.925 6.052 4.6136 6.596 5.78421 7.48C7.1614 8.5 8.12544 9.452 8.67632 10.268C9.15833 11.084 9.43377 11.9 9.43377 12.716C9.43377 13.872 9.02061 14.892 8.12544 15.776C7.23026 16.524 6.19737 17 4.88904 17C3.925 17 3.02982 16.728 2.20351 16.252C1.37719 15.708 0.688597 14.824 0 13.6ZM20.3825 0.408H22.0351V6.46L28.439 0.408H30.5737L22.8614 7.684L31.1246 16.66H28.9899L21.9662 9.044V16.592H20.3136V0.408H20.3825ZM53.3662 16.592V0.408H53.7105L64.3838 12.852V0.408H65.9676V16.66H65.6233L55.0189 4.352V16.66H53.3662V16.592ZM76.9851 16.592V0.408H77.3294L88.0026 12.852V0.408H89.5864V16.66H89.2421L78.6377 4.352V16.66H76.9851V16.592ZM100.26 0.408H102.119L106.182 7.072L110.244 0.408H112.104L107.008 8.84V16.592H105.424V8.84L100.26 0.408ZM122.983 0.408H126.633C128.974 0.408 130.696 0.68 131.797 1.292C132.899 1.904 133.863 2.856 134.621 4.148C135.378 5.44 135.722 7.004 135.722 8.772C135.722 9.996 135.516 11.152 135.103 12.24C134.689 13.328 134.139 14.144 133.381 14.824C132.693 15.504 131.866 15.98 131.04 16.252C130.214 16.524 128.768 16.66 126.633 16.66H122.983V0.408V0.408ZM126.013 3.4V13.6H127.459C128.836 13.6 129.869 13.464 130.489 13.124C131.109 12.784 131.66 12.24 132.004 11.492C132.417 10.744 132.624 9.792 132.624 8.636C132.624 6.936 132.142 5.576 131.178 4.624C130.282 3.808 128.905 3.332 127.046 3.332H126.013V3.4ZM139.992 0.408H143.022V16.66H139.992V0.408ZM147.497 0.408H150.734C152.455 0.408 153.764 0.544 154.521 0.884C155.279 1.224 155.898 1.768 156.38 2.448C156.862 3.196 157.069 4.08 157.069 5.1C157.069 6.256 156.793 7.14 156.174 7.956C155.623 8.704 154.797 9.248 153.764 9.52C153.144 9.656 152.111 9.792 150.527 9.792V16.66H147.497V0.408V0.408ZM150.527 6.732H151.491C152.249 6.732 152.8 6.664 153.075 6.596C153.35 6.46 153.626 6.324 153.764 6.052C153.901 5.78 154.039 5.508 154.039 5.1C154.039 4.488 153.764 4.012 153.35 3.74C153.006 3.536 152.386 3.4 151.422 3.4H150.596V6.732H150.527ZM47.7886 0.816H37.804L40.5583 5.848H40.8338V6.46L41.1781 7.14V5.848H41.7289V7.888L42.0732 8.772V5.916H42.693V9.792L42.8996 10.336L43.1061 9.792V5.848H43.7259V8.772L44.0702 7.956V5.848H44.5522V7.14L44.8965 6.256V5.848H45.2408" fill="black"/>
</svg>
