<svg id="Capa_1" enable-background="new 0 0 512.294 512.294" height="512" viewBox="0 0 512.294 512.294" width="512" xmlns="http://www.w3.org/2000/svg"><g><g><g><path d="m511.173 71.198c-2.146-7.901-8.156-13.851-16.079-15.916l-30.454-7.937-7.938-30.454c-2.064-7.923-8.014-13.934-15.915-16.08-7.898-2.146-16.075.028-21.865 5.818l-38.786 38.788c-5.732 5.731-7.952 14.146-5.792 21.96l12.888 46.631-12.788 12.788c-15.31-14.249-32.591-26.356-51.416-35.859-3.698-1.866-8.209-.382-10.075 3.315-1.866 3.698-.382 8.208 3.315 10.075 17.397 8.782 33.383 19.946 47.566 33.078l-29.985 29.985c-29.354-26.652-68.304-42.914-110.981-42.914-91.125 0-165.259 74.135-165.259 165.259 0 23.819 5.073 46.473 14.183 66.95-14.758 1.219-28.363 6.554-39.655 14.87-10.82-25.119-16.827-52.779-16.827-81.82 0-114.448 93.11-207.558 207.558-207.558 21.053 0 41.82 3.139 61.724 9.33 3.96 1.231 8.159-.979 9.389-4.934s-.979-8.159-4.934-9.389c-21.348-6.64-43.614-10.007-66.179-10.007-59.447 0-115.337 23.15-157.373 65.186s-65.185 97.926-65.185 157.373c0 32.458 6.92 63.847 20.029 92.508-12.441 13.817-20.029 32.088-20.029 52.101 0 8.573 1.384 17.001 4.115 25.051 1.331 3.923 5.591 6.025 9.511 4.694 3.923-1.33 6.024-5.589 4.694-9.511-2.203-6.496-3.32-13.303-3.32-20.234 0-34.71 28.239-62.949 62.949-62.949s62.949 28.239 62.949 62.949-28.239 62.949-62.949 62.949c-15.808 0-30.921-5.883-42.557-16.564-3.052-2.801-7.795-2.599-10.597.453-2.801 3.052-2.599 7.796.453 10.597 14.411 13.229 33.126 20.515 52.701 20.515 20.013 0 38.283-7.587 52.1-20.028 28.661 13.109 60.051 20.028 92.509 20.028 59.448 0 115.336-23.15 157.373-65.186 42.035-42.036 65.186-97.925 65.186-157.373 0-41.98-11.749-82.869-33.978-118.247-7.699-12.254-16.553-23.657-26.373-34.112l12.685-12.685 46.847 12.948c1.977.546 3.99.812 5.99.812 5.907 0 11.688-2.322 15.97-6.604l38.788-38.788c5.789-5.788 7.964-13.961 5.817-21.862zm-422.598 285.902c-10.211-20.273-15.966-43.158-15.966-67.364 0-82.853 67.406-150.259 150.259-150.259 38.541 0 73.735 14.592 100.361 38.534l-30.16 30.16c-18.863-16.258-43.404-26.101-70.201-26.101-59.368 0-107.667 48.299-107.667 107.667s48.299 107.667 107.667 107.667 107.667-48.299 107.667-107.667c0-27.183-10.131-52.041-26.808-71.009l30.151-30.151c24.369 26.719 39.25 62.234 39.25 101.16 0 82.853-67.406 150.259-150.259 150.259-24.209 0-47.091-5.769-67.366-15.983-4.624-34.734-32.192-62.297-66.928-66.913zm127.685-61.513c1.464 1.465 3.384 2.197 5.303 2.197s3.839-.732 5.303-2.197l27.312-27.312c4.201 6.11 6.667 13.502 6.667 21.461 0 20.94-17.037 37.977-37.977 37.977s-37.977-17.037-37.977-37.977 17.037-37.977 37.977-37.977c7.568 0 14.62 2.234 20.548 6.065l-27.156 27.156c-2.929 2.929-2.929 7.678 0 10.607zm37.933-48.54c-8.781-6.461-19.612-10.288-31.325-10.288-29.211 0-52.977 23.766-52.977 52.977s23.766 52.977 52.977 52.977 52.977-23.766 52.977-52.977c0-12.1-4.087-23.259-10.94-32.188l28.196-28.196c13.974 16.23 22.433 37.337 22.433 60.384 0 51.097-41.57 92.667-92.667 92.667s-92.667-41.57-92.667-92.667 41.57-92.667 92.667-92.667c22.661 0 43.445 8.181 59.563 21.739zm144.555-67.577c20.725 32.984 31.679 71.114 31.679 110.266 0 114.448-93.11 207.558-207.558 207.558-29.04 0-56.694-6.018-81.813-16.836 8.315-11.294 13.648-24.901 14.865-39.661 20.478 9.113 43.127 14.199 66.948 14.199 91.125 0 165.259-74.135 165.259-165.259 0-43.062-16.562-82.324-43.642-111.768l29.978-29.978c9.032 9.66 17.185 20.181 24.284 31.479zm-9.946-116.089c-.724-2.618.02-5.437 1.94-7.357l38.786-38.788c1.777-1.777 3.741-2.223 5.263-2.223.873 0 1.601.147 2.064.273 1.271.345 4.334 1.561 5.331 5.387l7.964 30.553-19.346 19.346c-.306.224-.604.467-.88.743l-30.5 30.5zm105.947 19.074-38.788 38.788c-1.92 1.92-4.738 2.665-7.356 1.94l-38.543-10.653 50.697-50.697 30.553 7.963c3.826.998 5.042 4.062 5.387 5.333s.845 4.53-1.95 7.326z"/><path d="m52.592 466.263c4.471 4.894 10.836 7.71 17.465 7.727h.058c6.608 0 12.964-2.783 17.446-7.641l33.45-36.259c3.819-4.14 5.798-9.52 5.571-15.148s-2.632-10.831-6.771-14.65c-8.547-7.884-21.914-7.347-29.8 1.2l-19.766 21.426-3.68-3.989c-7.897-8.56-21.286-9.1-29.846-1.203-8.519 7.859-9.089 21.214-1.272 29.771zm-5.702-37.514c1.175-1.084 2.663-1.62 4.148-1.62 1.651 0 3.297.662 4.502 1.968l7.322 7.937c1.896 2.055 4.587 3.234 7.384 3.234s5.487-1.179 7.384-3.234l23.406-25.372c2.277-2.469 6.136-2.623 8.603-.347 1.195 1.103 1.89 2.604 1.955 4.229s-.506 3.178-1.609 4.374l-33.45 36.259c-1.673 1.814-3.952 2.812-6.419 2.812-.007 0-.015 0-.022 0-2.475-.006-4.758-1.016-6.428-2.844l-17.146-18.768c-2.265-2.48-2.099-6.35.37-8.628z"/></g></g></g></svg>